ffmpeg version 3.4.8-0ubuntu0.2 Copyright (c) 2000-2020 the FFmpeg developers
  built with gcc 7 (Ubuntu 7.5.0-3ubuntu1~18.04)
  configuration: --prefix=/usr --extra-version=0ubuntu0.2 --toolchain=hardened --libdir=/usr/lib/x86_64-linux-gnu --incdir=/usr/include/x86_64-linux-gnu --enable-gpl --disable-stripping --enable-avresample --enable-avisynth --enable-gnutls --enable-ladspa --enable-libass --enable-libbluray --enable-libbs2b --enable-libcaca --enable-libcdio --enable-libflite --enable-libfontconfig --enable-libfreetype --enable-libfribidi --enable-libgme --enable-libgsm --enable-libmp3lame --enable-libmysofa --enable-libopenjpeg --enable-libopenmpt --enable-libopus --enable-libpulse --enable-librubberband --enable-librsvg --enable-libshine --enable-libsnappy --enable-libsoxr --enable-libspeex --enable-libssh --enable-libtheora --enable-libtwolame --enable-libvorbis --enable-libvpx --enable-libwavpack --enable-libwebp --enable-libx265 --enable-libxml2 --enable-libxvid --enable-libzmq --enable-libzvbi --enable-omx --enable-openal --enable-opengl --enable-sdl2 --enable-libdc1394 --enable-libdrm --enable-libiec61883 --enable-chromaprint --enable-frei0r --enable-libopencv --enable-libx264 --enable-shared
  libavutil      55. 78.100 / 55. 78.100
  libavcodec     57.107.100 / 57.107.100
  libavformat    57. 83.100 / 57. 83.100
  libavdevice    57. 10.100 / 57. 10.100
  libavfilter     6.107.100 /  6.107.100
  libavresample   3.  7.  0 /  3.  7.  0
  libswscale      4.  8.100 /  4.  8.100
  libswresample   2.  9.100 /  2.  9.100
  libpostproc    54.  7.100 / 54.  7.100
[rawvideo @ 0x5575a3fb8a20] Estimating duration from bitrate, this may be inaccurate
Input #0, rawvideo, from '../../SVC-Encoder-20220109T061506Z-001/SVC-Encoder/Dataset/RollerCoaster/ERP_8x8/tile_yuv/Tile_31_480x240.yuv':
  Duration: 00:00:10.00, start: 0.000000, bitrate: 41472 kb/s
    Stream #0:0: Video: rawvideo (I420 / 0x30323449), yuv420p, 480x240, 41472 kb/s, 30 tbr, 30 tbn, 30 tbc
Stream mapping:
  Stream #0:0 -> #0:0 (rawvideo (native) -> h264 (libx264))
Press [q] to stop, [?] for help
[libx264 @ 0x5575a3fc5c60] using cpu capabilities: MMX2 SSE2Fast LZCNT SSSE3 SSE4.2 AVX
[libx264 @ 0x5575a3fc5c60] profile High, level 2.1
Output #0, rawvideo, to 'RollerCoaster_Tile_31_480x240_x264_QP_20.h264':
  Metadata:
    encoder         : Lavf57.83.100
    Stream #0:0: Video: h264 (libx264), yuv420p, 480x240, q=-1--1, 30 fps, 30 tbn, 30 tbc
    Metadata:
      encoder         : Lavc57.107.100 libx264
    Side data:
      cpb: bitrate max/min/avg: 0/0/0 buffer size: 0 vbv_delay: -1
frame=  121 fps=0.0 q=26.0 PSNR=Y:nan U:nan V:nan *:nan size=     190kB time=00:00:02.60 bitrate= 598.5kbits/s speed=5.17x    frame=  227 fps=225 q=26.0 PSNR=Y:nan U:nan V:nan *:nan size=     256kB time=00:00:06.13 bitrate= 341.9kbits/s speed=6.07x    frame=  300 fps=196 q=26.0 LPSNR=Y:inf U:inf V:inf *:inf size=     655kB time=00:00:09.93 bitrate= 540.2kbits/s speed=6.48x    
video:655kB audio:0kB subtitle:0kB other streams:0kB global headers:0kB muxing overhead: 0.000000%
[libx264 @ 0x5575a3fc5c60] frame I:2     Avg QP:17.61  size: 26757  PSNR Mean Y:46.95 U:51.11 V:54.82 Avg:48.13 Global:48.10
[libx264 @ 0x5575a3fc5c60] frame P:76    Avg QP:19.59  size:  6355  PSNR Mean Y:43.66 U:50.05 V:52.21 Avg:45.03 Global:44.95
[libx264 @ 0x5575a3fc5c60] frame B:222   Avg QP:25.41  size:   605  PSNR Mean Y:42.89 U:49.85 V:52.12 Avg:44.31 Global:44.26
[libx264 @ 0x5575a3fc5c60] consecutive B-frames:  1.0%  0.7%  1.0% 97.3%
[libx264 @ 0x5575a3fc5c60] mb I  I16..4:  0.1% 85.8% 14.1%
[libx264 @ 0x5575a3fc5c60] mb P  I16..4:  0.0%  0.8%  0.5%  P16..4: 37.7% 28.9% 27.2%  0.0%  0.0%    skip: 5.0%
[libx264 @ 0x5575a3fc5c60] mb B  I16..4:  0.0%  0.0%  0.0%  B16..8: 59.6%  6.3%  0.9%  direct: 0.4%  skip:32.7%  L0:39.9% L1:51.2% BI: 9.0%
[libx264 @ 0x5575a3fc5c60] 8x8 transform intra:77.2% inter:66.2%
[libx264 @ 0x5575a3fc5c60] coded y,uvDC,uvAC intra: 97.9% 96.7% 61.7% inter: 20.4% 12.9% 0.1%
[libx264 @ 0x5575a3fc5c60] i16 v,h,dc,p: 14% 14%  0% 71%
[libx264 @ 0x5575a3fc5c60] i8 v,h,dc,ddl,ddr,vr,hd,vl,hu: 12% 17% 12%  7%  9%  8% 12%  8% 16%
[libx264 @ 0x5575a3fc5c60] i4 v,h,dc,ddl,ddr,vr,hd,vl,hu: 15% 18% 12%  7%  9% 11% 10%  6% 11%
[libx264 @ 0x5575a3fc5c60] i8c dc,h,v,p: 36% 25% 19% 19%
[libx264 @ 0x5575a3fc5c60] Weighted P-Frames: Y:0.0% UV:0.0%
[libx264 @ 0x5575a3fc5c60] ref P L0: 61.0% 21.5% 15.3%  2.2%
[libx264 @ 0x5575a3fc5c60] ref B L0: 90.2%  9.0%  0.8%
[libx264 @ 0x5575a3fc5c60] ref B L1: 93.4%  6.6%
[libx264 @ 0x5575a3fc5c60] PSNR Mean Y:43.110 U:49.906 V:52.163 Avg:44.518 Global:44.445 kb/s:536.56
